# xmcd
#
# Track frame offsets:
#	150
#	11950
#	25348
#	37597
#	47833
#	59404
#	71072
#	82189
#	91041
#	102063
#	114967
#	125063
#
# Disc length: 1828 seconds
#
# Revision: 1
# Processed by: cddbd v1.5.2PL0 Copyright (c) Steve Scherf et al.
# Submitted via: audiograbber 1.83.01
#
DISCID=9907220c
DTITLE=Charley Pride - The Sensational Charley Pride
DYEAR=1969
DGENRE=
TTITLE0=Louisiana Man
TTITLE1=She Still Got a Hold on You
TTITLE2=Let the Chips Fall
TTITLE3=Come On Home and Sing the Blues to Daddy
TTITLE4=Never More Than I
TTITLE5=Let Me Live Again
TTITLE6=Take Care of the Little Things
TTITLE7=Even After Everything She's Done
TTITLE8=(It's Just a Matter of) Making Up My Mind
TTITLE9=It's the Little Things
TTITLE10=Billy Bayou
TTITLE11=We Had All the Good Things Going
EXTD=
EXTT0=
EXTT1=
EXTT2=
EXTT3=
EXTT4=
EXTT5=
EXTT6=
EXTT7=
EXTT8=
EXTT9=
EXTT10=
EXTT11=
PLAYORDER=
